# 3ds Max Wavefront OBJ Exporter v0.99 - (c)2007 guruware
# ŽŽœšµÄÎÄŒþ:18.01.2026 20:41:59

mtllib arch.mtl

#
# object Box001
#

v  -99.9999 0.0004 49.9995
v  -99.9999 0.0004 -50.0005
v  -60.3244 0.0004 -50.0005
v  -60.3245 0.0004 -25.2432
v  -60.3244 0.0004 27.9183
v  -60.3244 0.0004 49.9995
v  60.3261 0.0012 49.9995
v  60.3260 0.0004 49.9995
v  100.0001 0.0004 49.9995
v  58.2706 15.6145 49.9995
v  52.2440 30.1638 49.9995
v  42.6572 42.6576 49.9995
v  30.1634 52.2444 49.9995
v  100.0001 90.0004 49.9995
v  15.6141 58.2710 49.9995
v  0.0008 60.3265 49.9995
v  -15.6126 58.2710 49.9995
v  -99.9999 90.0004 49.9995
v  -30.1619 52.2444 49.9995
v  -42.6557 42.6576 49.9995
v  -52.2425 30.1638 49.9995
v  -58.2690 15.6145 49.9995
v  -60.3246 0.0012 49.9995
v  -99.9999 90.0004 -50.0005
v  -60.3246 0.0012 -50.0005
v  -58.2690 15.6145 -50.0005
v  -52.2425 30.1638 -50.0005
v  -42.6557 42.6576 -50.0005
v  -30.1619 52.2444 -50.0005
v  -15.6126 58.2710 -50.0005
v  0.0008 60.3265 -50.0005
v  15.6141 58.2710 -50.0005
v  100.0001 90.0004 -50.0005
v  30.1634 52.2444 -50.0005
v  42.6572 42.6576 -50.0005
v  52.2440 30.1638 -50.0005
v  58.2706 15.6145 -50.0005
v  60.3261 0.0012 -50.0005
v  60.3260 0.0004 -50.0005
v  100.0001 0.0004 -50.0005
v  60.3260 0.0004 -25.2432
v  60.3260 0.0004 27.9183
v  60.3261 0.0012 -25.2432
v  58.2706 15.6145 -25.2432
v  52.2440 30.1638 -25.2432
v  60.3261 0.0012 27.9183
v  58.2706 15.6145 27.9183
v  42.6572 42.6576 -25.2432
v  52.2440 30.1638 27.9183
v  30.1634 52.2444 -25.2432
v  42.6572 42.6576 27.9183
v  15.6141 58.2710 -25.2432
v  30.1634 52.2444 27.9183
v  0.0008 60.3265 -25.2432
v  15.6141 58.2710 27.9183
v  -15.6126 58.2710 -25.2432
v  0.0008 60.3265 27.9183
v  -30.1619 52.2444 -25.2432
v  -15.6126 58.2710 27.9183
v  -42.6557 42.6576 -25.2432
v  -30.1619 52.2444 27.9183
v  -52.2425 30.1638 -25.2432
v  -42.6557 42.6576 27.9183
v  -58.2690 15.6145 -25.2432
v  -52.2425 30.1638 27.9183
v  -60.3246 0.0012 -25.2432
v  -58.2690 15.6145 27.9183
v  -60.3246 0.0012 27.9183
# 68 vertices

vn -0.5774 -0.5774 0.5774
vn -0.5774 -0.5774 -0.5774
vn 0.6176 -0.5411 -0.5707
vn 0.7521 -0.6590 0.0000
vn 0.7521 -0.6590 -0.0000
vn 0.6176 -0.5412 0.5707
vn -0.7342 -0.0000 -0.6789
vn -0.6173 -0.5414 0.5708
vn 0.5774 -0.5774 0.5774
vn -0.6521 -0.1747 0.7377
vn -0.6359 -0.3671 -0.6789
vn -0.4774 -0.4774 0.7377
vn -0.3376 -0.5846 0.7377
vn 0.5774 0.5774 0.5774
vn -0.1900 -0.7092 -0.6789
vn -0.0000 -0.6751 0.7377
vn 0.1747 -0.6521 0.7377
vn -0.5774 0.5774 0.5774
vn 0.3671 -0.6358 -0.6789
vn 0.4774 -0.4774 0.7377
vn 0.6359 -0.3671 -0.6789
vn 0.6521 -0.1747 0.7377
vn 0.7343 0.0003 -0.6788
vn -0.5774 0.5774 -0.5774
vn 0.7343 0.0003 0.6788
vn 0.6521 -0.1747 -0.7377
vn 0.6359 -0.3671 0.6789
vn 0.4774 -0.4774 -0.7377
vn 0.3376 -0.5846 -0.7377
vn 0.1900 -0.7092 0.6789
vn -0.0000 -0.6751 -0.7377
vn -0.1747 -0.6521 -0.7377
vn 0.5774 0.5774 -0.5774
vn -0.3671 -0.6359 0.6789
vn -0.4774 -0.4774 -0.7377
vn -0.6359 -0.3671 0.6789
vn -0.6521 -0.1747 -0.7377
vn -0.7343 0.0000 0.6789
vn -0.6174 -0.5414 -0.5708
vn 0.5774 -0.5774 -0.5774
vn -0.7519 -0.6593 -0.0000
vn -0.9936 -0.1127 -0.0000
vn -1.0000 0.0000 -0.0000
vn -0.9659 -0.2588 -0.0000
vn -0.8660 -0.5000 -0.0000
vn -1.0000 -0.0000 -0.0000
vn -0.7071 -0.7071 -0.0000
vn -0.5000 -0.8660 -0.0000
vn -0.2588 -0.9659 -0.0000
vn -0.0000 -1.0000 -0.0000
vn 0.2588 -0.9659 -0.0000
vn 0.5000 -0.8660 -0.0000
vn 0.7071 -0.7071 0.0000
vn 0.8660 -0.5000 0.0000
vn 0.7071 -0.7071 -0.0000
vn 0.9659 -0.2588 -0.0000
vn 0.8660 -0.5000 -0.0000
vn 1.0000 0.0004 0.0000
vn 0.9659 -0.2588 0.0000
vn 1.0000 0.0004 -0.0000
# 60 vertex normals

vt 1.0000 0.0000 0.0000
vt 1.0000 1.0000 0.0000
vt 0.8016 1.0000 0.0000
vt 0.8016 0.7524 0.0000
vt 0.8016 0.2208 0.0000
vt 0.8016 0.0000 0.0000
vt 0.7914 0.1735 0.0000
vt 0.7612 0.3351 0.0000
vt 0.7133 0.4740 0.0000
vt 0.6508 0.5805 0.0000
vt 0.5781 0.6475 0.0000
vt 0.5000 0.6703 0.0000
vt 0.4219 0.6475 0.0000
vt 0.0000 1.0000 0.0000
vt 0.3492 0.5805 0.0000
vt 0.2867 0.4740 0.0000
vt 0.2388 0.3351 0.0000
vt 0.2087 0.1735 0.0000
vt 0.1984 0.0000 0.0000
vt 0.0000 0.0000 0.0000
vt 0.7913 0.1735 0.0000
vt 0.2086 0.1735 0.0000
vt 0.1984 0.7524 0.0000
vt 0.1984 0.2208 0.0000
vt 0.1984 1.0000 0.0000
vt 0.7500 0.3069 1.0000
vt 0.7500 0.4000 1.0000
vt 0.7917 0.4000 1.0000
vt 0.7917 0.3069 1.0000
vt 0.8333 0.4000 1.0000
vt 0.8333 0.3069 1.0000
vt 0.7500 0.6000 1.0000
vt 0.7917 0.6000 1.0000
vt 0.8750 0.4000 1.0000
vt 0.8750 0.3069 1.0000
vt 0.8333 0.6000 1.0000
vt 0.7917 0.6831 1.0000
vt 0.7500 0.6831 1.0000
vt 0.9167 0.4000 1.0000
vt 0.9167 0.3069 1.0000
vt 0.8750 0.6000 1.0000
vt 0.8333 0.6831 1.0000
vt 0.9583 0.4000 1.0000
vt 0.9583 0.3069 1.0000
vt 0.9167 0.6000 1.0000
vt 0.8750 0.6831 1.0000
vt 1.0000 0.4000 1.0000
vt 1.0000 0.3069 1.0000
vt 0.9583 0.6000 1.0000
vt 0.9167 0.6831 1.0000
vt -0.0000 0.3069 1.0000
vt -0.0000 0.4000 1.0000
vt 0.0417 0.4000 1.0000
vt 0.0417 0.3069 1.0000
vt 1.0000 0.6000 1.0000
vt 0.9583 0.6831 1.0000
vt 0.0833 0.4000 1.0000
vt 0.0833 0.3069 1.0000
vt 0.0000 0.6000 1.0000
vt 0.0417 0.6000 1.0000
vt 1.0000 0.6831 1.0000
vt 0.1250 0.4000 1.0000
vt 0.1250 0.3069 1.0000
vt 0.0833 0.6000 1.0000
vt 0.0417 0.6831 1.0000
vt 0.0000 0.6831 1.0000
vt 0.1667 0.4000 1.0000
vt 0.1667 0.3069 1.0000
vt 0.1250 0.6000 1.0000
vt 0.0833 0.6831 1.0000
vt 0.2083 0.4000 1.0000
vt 0.2083 0.3069 1.0000
vt 0.1667 0.6000 1.0000
vt 0.1250 0.6831 1.0000
vt 0.2500 0.4000 1.0000
vt 0.2500 0.3069 1.0000
vt 0.2083 0.6000 1.0000
vt 0.1667 0.6831 1.0000
vt 0.2500 0.6000 1.0000
vt 0.2083 0.6831 1.0000
vt 0.2500 0.6831 1.0000
# 81 texture coords

o Box001
g Box001
usemtl 01___Default
s 2
f 1/1/1 2/2/2 3/3/3 4/4/4 
f 1/1/1 4/4/4 5/5/5 6/6/6 
s 8
f 7/6/7 8/6/8 9/1/9 10/7/10 
f 11/8/11 10/7/10 9/1/9 12/9/12 
f 13/10/13 12/9/12 9/1/9 14/2/14 
f 15/11/15 13/10/13 14/2/14 16/12/16 
f 17/13/17 16/12/16 14/2/14 18/14/18 
f 19/15/19 17/13/17 18/14/18 20/16/20 
f 21/17/21 20/16/20 18/14/18 22/18/22 
f 23/19/23 22/18/22 18/14/18 6/19/6 
f 1/20/1 6/19/6 18/14/18 
s 64
f 1/1/1 18/2/18 24/14/24 2/20/2 
s 32
f 25/6/25 3/6/3 2/1/2 26/21/26 
f 27/8/27 26/21/26 2/1/2 28/9/28 
f 29/10/29 28/9/28 2/1/2 24/2/24 
f 30/11/30 29/10/29 24/2/24 31/12/31 
f 32/13/32 31/12/31 24/2/24 33/14/33 
f 34/15/34 32/13/32 33/14/33 35/16/35 
f 36/17/36 35/16/35 33/14/33 37/22/37 
f 38/19/38 37/22/37 33/14/33 39/19/39 
f 40/20/40 39/19/39 33/14/33 
s 2
f 40/14/40 9/20/9 8/19/8 41/23/41 
f 8/19/8 42/24/42 41/23/41 
f 39/25/39 40/14/40 41/23/41 
s 16
f 40/1/40 33/2/33 14/14/14 9/20/9 
s 4
f 14/1/14 33/2/33 24/14/24 18/20/18 
s 128
f 38/26/38 43/27/43 44/28/44 37/29/37 
f 37/29/37 44/28/44 45/30/45 36/31/36 
f 46/32/46 47/33/44 44/28/44 43/27/43 
f 39/26/39 41/27/41 43/27/43 38/26/38 
f 36/31/36 45/30/45 48/34/47 35/35/35 
f 47/33/44 49/36/45 45/30/45 44/28/44 
f 42/32/42 46/32/46 43/27/43 41/27/41 
f 10/37/10 47/33/44 46/32/46 7/38/7 
f 35/35/35 48/34/47 50/39/48 34/40/34 
f 49/36/45 51/41/47 48/34/47 45/30/45 
f 11/42/11 49/36/45 47/33/44 10/37/10 
f 8/38/8 7/38/7 46/32/46 42/32/42 
f 34/40/34 50/39/48 52/43/49 32/44/32 
f 51/41/47 53/45/48 50/39/48 48/34/47 
f 12/46/12 51/41/47 49/36/45 11/42/11 
f 32/44/32 52/43/49 54/47/50 31/48/31 
f 53/45/48 55/49/49 52/43/49 50/39/48 
f 13/50/13 53/45/48 51/41/47 12/46/12 
f 31/51/31 54/52/50 56/53/51 30/54/30 
f 55/49/49 57/55/50 54/47/50 52/43/49 
f 15/56/15 55/49/49 53/45/48 13/50/13 
f 30/54/30 56/53/51 58/57/52 29/58/29 
f 57/59/50 59/60/51 56/53/51 54/52/50 
f 16/61/16 57/55/50 55/49/49 15/56/15 
f 29/58/29 58/57/52 60/62/53 28/63/28 
f 59/60/51 61/64/52 58/57/52 56/53/51 
f 17/65/17 59/60/51 57/59/50 16/66/16 
f 28/63/28 60/62/53 62/67/54 27/68/27 
f 61/64/52 63/69/55 60/62/53 58/57/52 
f 19/70/19 61/64/52 59/60/51 17/65/17 
f 27/68/27 62/67/54 64/71/56 26/72/26 
f 63/69/55 65/73/57 62/67/54 60/62/53 
f 20/74/20 63/69/55 61/64/52 19/70/19 
f 26/72/26 64/71/56 66/75/58 25/76/25 
f 65/73/57 67/77/59 64/71/56 62/67/54 
f 21/78/21 65/73/57 63/69/55 20/74/20 
f 3/76/3 25/76/25 66/75/58 4/75/4 
f 67/77/59 68/79/60 66/75/58 64/71/56 
f 22/80/22 67/77/59 65/73/57 21/78/21 
f 4/75/4 66/75/58 68/79/60 5/79/5 
f 23/81/23 68/79/60 67/77/59 22/80/22 
f 23/81/23 6/81/6 5/79/5 68/79/60 
# 64 polygons - 4 triangles

