# Blender 4.5.3 LTS
# www.blender.org
mtllib cylinder.mtl
o Cone001.001
v 2.479577 0.013124 1.451821
v 2.598851 0.013124 1.382958
v 2.612610 0.013124 1.416175
v 2.617303 0.013124 1.451821
v 2.548440 0.013124 1.332546
v 2.576964 0.013124 1.354434
v 2.479577 0.013124 1.314095
v 2.515223 0.013124 1.318787
v 2.410714 0.013124 1.332546
v 2.443931 0.013124 1.318787
v 2.360302 0.013124 1.382958
v 2.382190 0.013124 1.354434
v 2.341850 0.013124 1.451821
v 2.346543 0.013124 1.416175
v 2.360302 0.013124 1.520684
v 2.346543 0.013124 1.487467
v 2.410713 0.013124 1.571096
v 2.382189 0.013124 1.549208
v 2.479577 0.013124 1.589548
v 2.443930 0.013124 1.584855
v 2.548440 0.013124 1.571096
v 2.515223 0.013124 1.584855
v 2.598851 0.013124 1.520684
v 2.576964 0.013124 1.549209
v 2.612610 0.013124 1.487468
v 2.612610 0.089613 1.416175
v 2.617303 0.089613 1.451821
v 2.598851 0.089613 1.382958
v 2.576964 0.089613 1.354434
v 2.548440 0.089613 1.332546
v 2.515223 0.089613 1.318787
v 2.479577 0.089613 1.314095
v 2.443931 0.089613 1.318787
v 2.410714 0.089613 1.332546
v 2.382190 0.089613 1.354434
v 2.360302 0.089613 1.382958
v 2.346543 0.089613 1.416175
v 2.341850 0.089613 1.451821
v 2.346543 0.089613 1.487467
v 2.360302 0.089613 1.520684
v 2.382189 0.089613 1.549208
v 2.410713 0.089613 1.571096
v 2.443930 0.089613 1.584855
v 2.479577 0.089613 1.589548
v 2.515223 0.089613 1.584855
v 2.548440 0.089613 1.571096
v 2.576964 0.089613 1.549209
v 2.598851 0.089613 1.520684
v 2.612610 0.089613 1.487468
v 2.612610 0.166102 1.416175
v 2.617303 0.166102 1.451821
v 2.598851 0.166102 1.382958
v 2.576964 0.166102 1.354434
v 2.548440 0.166102 1.332546
v 2.515223 0.166102 1.318787
v 2.479577 0.166102 1.314095
v 2.443931 0.166102 1.318787
v 2.410714 0.166102 1.332546
v 2.382190 0.166102 1.354434
v 2.360302 0.166102 1.382958
v 2.346543 0.166102 1.416175
v 2.341850 0.166102 1.451821
v 2.346543 0.166102 1.487467
v 2.360302 0.166102 1.520684
v 2.382189 0.166102 1.549208
v 2.410713 0.166102 1.571096
v 2.443930 0.166102 1.584855
v 2.479577 0.166102 1.589548
v 2.515223 0.166102 1.584855
v 2.548440 0.166102 1.571096
v 2.576964 0.166102 1.549209
v 2.598851 0.166102 1.520684
v 2.612610 0.166102 1.487468
v 2.612610 0.242591 1.416175
v 2.617303 0.242591 1.451821
v 2.598851 0.242591 1.382958
v 2.576964 0.242591 1.354434
v 2.548440 0.242591 1.332546
v 2.515223 0.242591 1.318787
v 2.479577 0.242591 1.314095
v 2.443931 0.242591 1.318787
v 2.410714 0.242591 1.332546
v 2.382190 0.242591 1.354434
v 2.360302 0.242591 1.382958
v 2.346543 0.242591 1.416175
v 2.341850 0.242591 1.451821
v 2.346543 0.242591 1.487467
v 2.360302 0.242591 1.520684
v 2.382189 0.242591 1.549208
v 2.410713 0.242591 1.571096
v 2.443930 0.242591 1.584855
v 2.479577 0.242591 1.589548
v 2.515223 0.242591 1.584855
v 2.548440 0.242591 1.571096
v 2.576964 0.242591 1.549209
v 2.598851 0.242591 1.520684
v 2.612610 0.242591 1.487468
v 2.612610 0.319080 1.416175
v 2.617303 0.319080 1.451821
v 2.598851 0.319080 1.382958
v 2.576964 0.319080 1.354434
v 2.548440 0.319080 1.332546
v 2.515223 0.319080 1.318787
v 2.479577 0.319080 1.314095
v 2.443931 0.319080 1.318787
v 2.410714 0.319080 1.332546
v 2.382190 0.319080 1.354434
v 2.360302 0.319080 1.382958
v 2.346543 0.319080 1.416175
v 2.341850 0.319080 1.451821
v 2.346543 0.319080 1.487467
v 2.360302 0.319080 1.520684
v 2.382189 0.319080 1.549208
v 2.410713 0.319080 1.571096
v 2.443930 0.319080 1.584855
v 2.479577 0.319080 1.589548
v 2.515223 0.319080 1.584855
v 2.548440 0.319080 1.571096
v 2.576964 0.319080 1.549209
v 2.598851 0.319080 1.520684
v 2.612610 0.319080 1.487468
v 2.612610 0.395568 1.416175
v 2.617303 0.395568 1.451821
v 2.598851 0.395568 1.382958
v 2.576964 0.395568 1.354434
v 2.548440 0.395568 1.332546
v 2.515223 0.395568 1.318787
v 2.479577 0.395568 1.314095
v 2.443931 0.395568 1.318787
v 2.410714 0.395568 1.332546
v 2.382190 0.395568 1.354434
v 2.360302 0.395568 1.382958
v 2.346543 0.395568 1.416175
v 2.341850 0.395568 1.451821
v 2.346543 0.395568 1.487467
v 2.360302 0.395568 1.520684
v 2.382189 0.395568 1.549208
v 2.410713 0.395568 1.571096
v 2.443930 0.395568 1.584855
v 2.479577 0.395568 1.589548
v 2.515223 0.395568 1.584855
v 2.548440 0.395568 1.571096
v 2.576964 0.395568 1.549209
v 2.598851 0.395568 1.520684
v 2.612610 0.395568 1.487468
v 2.479577 0.395568 1.451821
vn -0.0000 -1.0000 -0.0000
vn 0.7208 -0.5543 -0.4162
vn 0.8040 -0.5543 -0.2154
vn 0.8323 -0.5543 -0.0000
vn 0.4162 -0.5543 -0.7208
vn 0.5885 -0.5543 -0.5885
vn -0.0000 -0.5543 -0.8323
vn 0.2154 -0.5543 -0.8040
vn -0.4162 -0.5543 -0.7208
vn -0.2154 -0.5543 -0.8040
vn -0.7208 -0.5543 -0.4162
vn -0.5885 -0.5543 -0.5885
vn -0.8323 -0.5543 -0.0000
vn -0.8040 -0.5543 -0.2154
vn -0.7208 -0.5543 0.4162
vn -0.8040 -0.5543 0.2154
vn -0.4162 -0.5543 0.7208
vn -0.5885 -0.5543 0.5885
vn -0.0000 -0.5543 0.8323
vn -0.2154 -0.5543 0.8040
vn 0.4162 -0.5543 0.7208
vn 0.2154 -0.5543 0.8040
vn 0.7208 -0.5543 0.4162
vn 0.5885 -0.5543 0.5885
vn 0.8040 -0.5543 0.2154
vn 0.9659 -0.0000 -0.2588
vn 1.0000 -0.0000 -0.0000
vn 0.8660 -0.0000 -0.5000
vn 0.7071 -0.0000 -0.7071
vn 0.5000 -0.0000 -0.8660
vn 0.2588 -0.0000 -0.9659
vn -0.0000 -0.0000 -1.0000
vn -0.2588 -0.0000 -0.9659
vn -0.5000 -0.0000 -0.8660
vn -0.7071 -0.0000 -0.7071
vn -0.8660 -0.0000 -0.5000
vn -0.9659 -0.0000 -0.2588
vn -1.0000 -0.0000 -0.0000
vn -0.9659 -0.0000 0.2588
vn -0.8660 -0.0000 0.5000
vn -0.7071 -0.0000 0.7071
vn -0.5000 -0.0000 0.8660
vn -0.2588 -0.0000 0.9659
vn -0.0000 -0.0000 1.0000
vn 0.2588 -0.0000 0.9659
vn 0.5000 -0.0000 0.8660
vn 0.7071 -0.0000 0.7071
vn 0.8660 -0.0000 0.5000
vn 0.9659 -0.0000 0.2588
vn 0.8040 0.5543 -0.2154
vn 0.8323 0.5543 -0.0000
vn 0.7208 0.5543 -0.4162
vn 0.5885 0.5543 -0.5885
vn 0.4162 0.5543 -0.7208
vn 0.2154 0.5543 -0.8040
vn -0.0000 0.5543 -0.8323
vn -0.2154 0.5543 -0.8040
vn -0.4162 0.5543 -0.7208
vn -0.5885 0.5543 -0.5885
vn -0.7208 0.5543 -0.4162
vn -0.8040 0.5543 -0.2154
vn -0.8323 0.5543 -0.0000
vn -0.8040 0.5543 0.2154
vn -0.7208 0.5543 0.4162
vn -0.5885 0.5543 0.5885
vn -0.4162 0.5543 0.7208
vn -0.2154 0.5543 0.8040
vn -0.0000 0.5543 0.8323
vn 0.2154 0.5543 0.8040
vn 0.4162 0.5543 0.7208
vn 0.5885 0.5543 0.5885
vn 0.7208 0.5543 0.4162
vn 0.8040 0.5543 0.2154
vn -0.0000 1.0000 -0.0000
vt 0.500000 0.000000
vt 0.833300 0.000000
vt 0.791700 0.000000
vt 0.750000 0.000000
vt 0.916700 0.000000
vt 0.875000 0.000000
vt 1.000000 0.000000
vt 0.958300 0.000000
vt 0.083300 0.000000
vt 0.041700 0.000000
vt -0.000000 0.000000
vt 0.166700 0.000000
vt 0.125000 0.000000
vt 0.250000 0.000000
vt 0.208300 0.000000
vt 0.333300 0.000000
vt 0.291700 0.000000
vt 0.416700 0.000000
vt 0.375000 0.000000
vt 0.458300 0.000000
vt 0.583300 0.000000
vt 0.541700 0.000000
vt 0.666700 0.000000
vt 0.625000 0.000000
vt 0.708300 0.000000
vt 0.791700 0.200000
vt 0.750000 0.200000
vt 0.833300 0.200000
vt 0.875000 0.200000
vt 0.916700 0.200000
vt 0.958300 0.200000
vt 1.000000 0.200000
vt 0.041700 0.200000
vt -0.000000 0.200000
vt 0.083300 0.200000
vt 0.125000 0.200000
vt 0.166700 0.200000
vt 0.208300 0.200000
vt 0.250000 0.200000
vt 0.291700 0.200000
vt 0.333300 0.200000
vt 0.375000 0.200000
vt 0.416700 0.200000
vt 0.458300 0.200000
vt 0.500000 0.200000
vt 0.541700 0.200000
vt 0.583300 0.200000
vt 0.625000 0.200000
vt 0.666700 0.200000
vt 0.708300 0.200000
vt 0.791700 0.400000
vt 0.750000 0.400000
vt 0.833300 0.400000
vt 0.875000 0.400000
vt 0.916700 0.400000
vt 0.958300 0.400000
vt 1.000000 0.400000
vt 0.041700 0.400000
vt -0.000000 0.400000
vt 0.083300 0.400000
vt 0.125000 0.400000
vt 0.166700 0.400000
vt 0.208300 0.400000
vt 0.250000 0.400000
vt 0.291700 0.400000
vt 0.333300 0.400000
vt 0.375000 0.400000
vt 0.416700 0.400000
vt 0.458300 0.400000
vt 0.500000 0.400000
vt 0.541700 0.400000
vt 0.583300 0.400000
vt 0.625000 0.400000
vt 0.666700 0.400000
vt 0.708300 0.400000
vt 0.791700 0.600000
vt 0.750000 0.600000
vt 0.833300 0.600000
vt 0.875000 0.600000
vt 0.916700 0.600000
vt 0.958300 0.600000
vt 1.000000 0.600000
vt 0.041700 0.600000
vt -0.000000 0.600000
vt 0.083300 0.600000
vt 0.125000 0.600000
vt 0.166700 0.600000
vt 0.208300 0.600000
vt 0.250000 0.600000
vt 0.291700 0.600000
vt 0.333300 0.600000
vt 0.375000 0.600000
vt 0.416700 0.600000
vt 0.458300 0.600000
vt 0.500000 0.600000
vt 0.541700 0.600000
vt 0.583300 0.600000
vt 0.625000 0.600000
vt 0.666700 0.600000
vt 0.708300 0.600000
vt 0.791700 0.800000
vt 0.750000 0.800000
vt 0.833300 0.800000
vt 0.875000 0.800000
vt 0.916700 0.800000
vt 0.958300 0.800000
vt 1.000000 0.800000
vt 0.041700 0.800000
vt -0.000000 0.800000
vt 0.083300 0.800000
vt 0.125000 0.800000
vt 0.166700 0.800000
vt 0.208300 0.800000
vt 0.250000 0.800000
vt 0.291700 0.800000
vt 0.333300 0.800000
vt 0.375000 0.800000
vt 0.416700 0.800000
vt 0.458300 0.800000
vt 0.500000 0.800000
vt 0.541700 0.800000
vt 0.583300 0.800000
vt 0.625000 0.800000
vt 0.666700 0.800000
vt 0.708300 0.800000
vt 0.791700 1.000000
vt 0.750000 1.000000
vt 0.833300 1.000000
vt 0.875000 1.000000
vt 0.916700 1.000000
vt 0.958300 1.000000
vt 1.000000 1.000000
vt 0.041700 1.000000
vt -0.000000 1.000000
vt 0.083300 1.000000
vt 0.125000 1.000000
vt 0.166700 1.000000
vt 0.208300 1.000000
vt 0.250000 1.000000
vt 0.291700 1.000000
vt 0.333300 1.000000
vt 0.375000 1.000000
vt 0.416700 1.000000
vt 0.458300 1.000000
vt 0.500000 1.000000
vt 0.541700 1.000000
vt 0.583300 1.000000
vt 0.625000 1.000000
vt 0.666700 1.000000
vt 0.708300 1.000000
vt 1.007600 1.000000
s 1
usemtl ģ__С__01___Default.002
f 1/1/1 2/2/2 3/3/3 4/4/4
f 1/1/1 5/5/5 6/6/6 2/2/2
f 1/1/1 7/7/7 8/8/8 5/5/5
f 1/1/1 9/9/9 10/10/10 7/11/7
f 1/1/1 11/12/11 12/13/12 9/9/9
f 1/1/1 13/14/13 14/15/14 11/12/11
f 1/1/1 15/16/15 16/17/16 13/14/13
f 1/1/1 17/18/17 18/19/18 15/16/15
f 1/1/1 19/1/19 20/20/20 17/18/17
f 1/1/1 21/21/21 22/22/22 19/1/19
f 1/1/1 23/23/23 24/24/24 21/21/21
f 1/1/1 4/4/4 25/25/25 23/23/23
f 4/4/4 3/3/3 26/26/26 27/27/27
f 3/3/3 2/2/2 28/28/28 26/26/26
f 2/2/2 6/6/6 29/29/29 28/28/28
f 6/6/6 5/5/5 30/30/30 29/29/29
f 5/5/5 8/8/8 31/31/31 30/30/30
f 8/8/8 7/7/7 32/32/32 31/31/31
f 7/11/7 10/10/10 33/33/33 32/34/32
f 10/10/10 9/9/9 34/35/34 33/33/33
f 9/9/9 12/13/12 35/36/35 34/35/34
f 12/13/12 11/12/11 36/37/36 35/36/35
f 11/12/11 14/15/14 37/38/37 36/37/36
f 14/15/14 13/14/13 38/39/38 37/38/37
f 13/14/13 16/17/16 39/40/39 38/39/38
f 16/17/16 15/16/15 40/41/40 39/40/39
f 15/16/15 18/19/18 41/42/41 40/41/40
f 18/19/18 17/18/17 42/43/42 41/42/41
f 17/18/17 20/20/20 43/44/43 42/43/42
f 20/20/20 19/1/19 44/45/44 43/44/43
f 19/1/19 22/22/22 45/46/45 44/45/44
f 22/22/22 21/21/21 46/47/46 45/46/45
f 21/21/21 24/24/24 47/48/47 46/47/46
f 24/24/24 23/23/23 48/49/48 47/48/47
f 23/23/23 25/25/25 49/50/49 48/49/48
f 25/25/25 4/4/4 27/27/27 49/50/49
f 27/27/27 26/26/26 50/51/26 51/52/27
f 26/26/26 28/28/28 52/53/28 50/51/26
f 28/28/28 29/29/29 53/54/29 52/53/28
f 29/29/29 30/30/30 54/55/30 53/54/29
f 30/30/30 31/31/31 55/56/31 54/55/30
f 31/31/31 32/32/32 56/57/32 55/56/31
f 32/34/32 33/33/33 57/58/33 56/59/32
f 33/33/33 34/35/34 58/60/34 57/58/33
f 34/35/34 35/36/35 59/61/35 58/60/34
f 35/36/35 36/37/36 60/62/36 59/61/35
f 36/37/36 37/38/37 61/63/37 60/62/36
f 37/38/37 38/39/38 62/64/38 61/63/37
f 38/39/38 39/40/39 63/65/39 62/64/38
f 39/40/39 40/41/40 64/66/40 63/65/39
f 40/41/40 41/42/41 65/67/41 64/66/40
f 41/42/41 42/43/42 66/68/42 65/67/41
f 42/43/42 43/44/43 67/69/43 66/68/42
f 43/44/43 44/45/44 68/70/44 67/69/43
f 44/45/44 45/46/45 69/71/45 68/70/44
f 45/46/45 46/47/46 70/72/46 69/71/45
f 46/47/46 47/48/47 71/73/47 70/72/46
f 47/48/47 48/49/48 72/74/48 71/73/47
f 48/49/48 49/50/49 73/75/49 72/74/48
f 49/50/49 27/27/27 51/52/27 73/75/49
f 51/52/27 50/51/26 74/76/26 75/77/27
f 50/51/26 52/53/28 76/78/28 74/76/26
f 52/53/28 53/54/29 77/79/29 76/78/28
f 53/54/29 54/55/30 78/80/30 77/79/29
f 54/55/30 55/56/31 79/81/31 78/80/30
f 55/56/31 56/57/32 80/82/32 79/81/31
f 56/59/32 57/58/33 81/83/33 80/84/32
f 57/58/33 58/60/34 82/85/34 81/83/33
f 58/60/34 59/61/35 83/86/35 82/85/34
f 59/61/35 60/62/36 84/87/36 83/86/35
f 60/62/36 61/63/37 85/88/37 84/87/36
f 61/63/37 62/64/38 86/89/38 85/88/37
f 62/64/38 63/65/39 87/90/39 86/89/38
f 63/65/39 64/66/40 88/91/40 87/90/39
f 64/66/40 65/67/41 89/92/41 88/91/40
f 65/67/41 66/68/42 90/93/42 89/92/41
f 66/68/42 67/69/43 91/94/43 90/93/42
f 67/69/43 68/70/44 92/95/44 91/94/43
f 68/70/44 69/71/45 93/96/45 92/95/44
f 69/71/45 70/72/46 94/97/46 93/96/45
f 70/72/46 71/73/47 95/98/47 94/97/46
f 71/73/47 72/74/48 96/99/48 95/98/47
f 72/74/48 73/75/49 97/100/49 96/99/48
f 73/75/49 51/52/27 75/77/27 97/100/49
f 75/77/27 74/76/26 98/101/26 99/102/27
f 74/76/26 76/78/28 100/103/28 98/101/26
f 76/78/28 77/79/29 101/104/29 100/103/28
f 77/79/29 78/80/30 102/105/30 101/104/29
f 78/80/30 79/81/31 103/106/31 102/105/30
f 79/81/31 80/82/32 104/107/32 103/106/31
f 80/84/32 81/83/33 105/108/33 104/109/32
f 81/83/33 82/85/34 106/110/34 105/108/33
f 82/85/34 83/86/35 107/111/35 106/110/34
f 83/86/35 84/87/36 108/112/36 107/111/35
f 84/87/36 85/88/37 109/113/37 108/112/36
f 85/88/37 86/89/38 110/114/38 109/113/37
f 86/89/38 87/90/39 111/115/39 110/114/38
f 87/90/39 88/91/40 112/116/40 111/115/39
f 88/91/40 89/92/41 113/117/41 112/116/40
f 89/92/41 90/93/42 114/118/42 113/117/41
f 90/93/42 91/94/43 115/119/43 114/118/42
f 91/94/43 92/95/44 116/120/44 115/119/43
f 92/95/44 93/96/45 117/121/45 116/120/44
f 93/96/45 94/97/46 118/122/46 117/121/45
f 94/97/46 95/98/47 119/123/47 118/122/46
f 95/98/47 96/99/48 120/124/48 119/123/47
f 96/99/48 97/100/49 121/125/49 120/124/48
f 97/100/49 75/77/27 99/102/27 121/125/49
f 99/102/27 98/101/26 122/126/50 123/127/51
f 98/101/26 100/103/28 124/128/52 122/126/50
f 100/103/28 101/104/29 125/129/53 124/128/52
f 101/104/29 102/105/30 126/130/54 125/129/53
f 102/105/30 103/106/31 127/131/55 126/130/54
f 103/106/31 104/107/32 128/132/56 127/131/55
f 104/109/32 105/108/33 129/133/57 128/134/56
f 105/108/33 106/110/34 130/135/58 129/133/57
f 106/110/34 107/111/35 131/136/59 130/135/58
f 107/111/35 108/112/36 132/137/60 131/136/59
f 108/112/36 109/113/37 133/138/61 132/137/60
f 109/113/37 110/114/38 134/139/62 133/138/61
f 110/114/38 111/115/39 135/140/63 134/139/62
f 111/115/39 112/116/40 136/141/64 135/140/63
f 112/116/40 113/117/41 137/142/65 136/141/64
f 113/117/41 114/118/42 138/143/66 137/142/65
f 114/118/42 115/119/43 139/144/67 138/143/66
f 115/119/43 116/120/44 140/145/68 139/144/67
f 116/120/44 117/121/45 141/146/69 140/145/68
f 117/121/45 118/122/46 142/147/70 141/146/69
f 118/122/46 119/123/47 143/148/71 142/147/70
f 119/123/47 120/124/48 144/149/72 143/148/71
f 120/124/48 121/125/49 145/150/73 144/149/72
f 121/125/49 99/102/27 123/127/51 145/150/73
f 146/145/74 145/150/73 123/127/51 122/126/50
f 146/145/74 122/126/50 124/128/52 125/129/53
f 146/145/74 125/129/53 126/130/54 127/131/55
f 146/145/74 127/131/55 128/132/56 129/151/57
f 146/145/74 129/133/57 130/135/58 131/136/59
f 146/145/74 131/136/59 132/137/60 133/138/61
f 146/145/74 133/138/61 134/139/62 135/140/63
f 146/145/74 135/140/63 136/141/64 137/142/65
f 146/145/74 137/142/65 138/143/66 139/144/67
f 146/145/74 139/144/67 140/145/68 141/146/69
f 146/145/74 141/146/69 142/147/70 143/148/71
f 146/145/74 143/148/71 144/149/72 145/150/73
