# Blender 4.5.3 LTS
# www.blender.org
mtllib prism.mtl
o Pyramid001
v 3.661520 0.270507 1.778336
v 3.533020 0.007332 1.906836
v 3.790020 0.007332 1.906836
v 3.790020 0.007332 1.649836
v 3.533020 0.007332 1.649836
v 3.661520 0.007332 1.778336
vn -0.0000 1.0000 -0.0000
vn -0.6645 -0.3419 0.6645
vn 0.6645 -0.3419 0.6645
vn 0.6645 -0.3419 -0.6645
vn -0.6645 -0.3419 -0.6645
vn -0.0000 -1.0000 -0.0000
vt 0.500000 1.000000
vt 0.000000 0.000000
vt 1.000000 0.000000
vt 0.000000 1.000000
vt 0.500000 0.500000
vt 1.000000 1.000000
s 1
usemtl ģ__С__01___Default.005
f 1/1/1 2/2/2 3/3/3
f 1/1/1 3/2/3 4/3/4
f 1/1/1 4/2/4 5/3/5
f 1/1/1 5/2/5 2/3/2
f 2/4/2 6/5/6 3/6/3
f 3/6/3 6/5/6 4/3/4
f 4/3/4 6/5/6 5/2/5
f 5/2/5 6/5/6 2/4/2
